<?xml version="1.0" encoding="UTF-8" standalone="no"?>
<svg
   xmlns:dc="http://purl.org/dc/elements/1.1/"
   xmlns:cc="http://creativecommons.org/ns#"
   xmlns:rdf="http://www.w3.org/1999/02/22-rdf-syntax-ns#"
   xmlns:svg="http://www.w3.org/2000/svg"
   xmlns="http://www.w3.org/2000/svg"
   viewBox="0 0 352 250.66667"
   height="250.66667"
   width="352"
   xml:space="preserve"
   id="svg2"
   version="1.1"><metadata
     id="metadata8"><rdf:RDF><cc:Work
         rdf:about=""><dc:format>image/svg+xml</dc:format><dc:type
           rdf:resource="http://purl.org/dc/dcmitype/StillImage" /></cc:Work></rdf:RDF></metadata><defs
     id="defs6" /><g
     transform="matrix(1.3333333,0,0,-1.3333333,0,250.66667)"
     id="g10"><g
       transform="scale(0.1)"
       id="g12"><path
         id="path14"
         style="fill:#fffccc;fill-opacity:1;fill-rule:evenodd;stroke:none"
         d="m 876.82,1872 h 876.76 V 936 H 876.82 v 936" /><path
         id="path16"
         style="fill:#fffccc;fill-opacity:1;fill-rule:evenodd;stroke:none"
         d="M 0.0664063,936 H 876.82 V 0 H 0.0664063 v 936" /><path
         id="path18"
         style="fill:#fffccc;fill-opacity:1;fill-rule:evenodd;stroke:none"
         d="m 1753.58,936 h 876.75 V 0 h -876.75 v 936" /><path
         id="path20"
         style="fill:#a45430;fill-opacity:1;fill-rule:evenodd;stroke:none"
         d="m 2504.12,621.512 17.12,-41.324 -194.52,-80.571 c -3.46,14.828 -9.31,28.746 -17.12,41.317 z M 2328.56,490.359 h 210.54 v -44.718 h -210.54 c 1.18,7.269 1.79,14.746 1.79,22.359 0,7.613 -0.62,15.09 -1.79,22.359 z m -1.83,-53.976 194.51,-80.57 -17.12,-41.317 -194.52,80.578 c 7.81,12.563 13.66,26.481 17.13,41.309 z m -22.38,-49.153 148.89,-148.89 -31.63,-31.625 -148.89,148.894 c 12.17,8.766 22.87,19.457 31.63,31.621 z m -39.46,-36.875 80.57,-194.519 -41.32,-17.121 -80.57,194.523 c 14.83,3.465 28.75,9.325 41.32,17.117 z m -50.57,-18.953 V 120.855 h -44.73 V 331.41 c 7.28,-1.183 14.75,-1.801 22.37,-1.801 7.61,0 15.08,0.621 22.36,1.793 z m 0,483.743 V 604.598 c -7.28,1.175 -14.75,1.797 -22.36,1.797 -7.62,0 -15.09,-0.622 -22.37,-1.793 v 210.543 z m 89.82,-17.86 41.32,-17.121 -80.57,-194.519 c -12.57,7.796 -26.49,13.66 -41.32,17.125 z m -224.37,0 80.57,-194.515 c -14.82,-3.465 -28.74,-9.329 -41.31,-17.133 l -80.58,194.527 z m -199.98,-175.773 194.53,-80.586 -0.07,-0.113 c -7.77,-12.54 -13.61,-26.415 -17.07,-41.196 l -194.51,80.571 z m -34.98,-131.153 h 210.55 c -1.18,-7.269 -1.8,-14.746 -1.8,-22.359 0,-7.613 0.62,-15.09 1.8,-22.359 h -210.55 z m 117.48,238.926 148.9,-148.894 c -12.17,-8.766 -22.86,-19.461 -31.63,-31.621 l -148.89,148.89 z m 459.32,0 31.63,-31.625 -148.89,-148.89 c -8.76,12.164 -19.46,22.859 -31.62,31.625 z M 2079.56,387.242 c 8.77,-12.172 19.46,-22.867 31.63,-31.633 l -148.9,-148.894 -31.62,31.625 z m -216.89,-31.429 194.53,80.574 c 3.45,-14.828 9.32,-28.746 17.12,-41.321 l -194.53,-80.57 z m 297.67,-22.586 -80.57,-194.512 -41.32,17.121 80.58,194.535 c 12.56,-7.808 26.48,-13.668 41.31,-17.144" /><path
         id="path22"
         style="fill:#a7a5a6;fill-opacity:1;fill-rule:nonzero;stroke:none"
         d="m 2191.96,801.098 c 91.96,0 175.24,-37.297 235.51,-97.578 60.29,-60.278 97.58,-143.555 97.58,-235.52 0,-91.965 -37.29,-175.242 -97.58,-235.52 -60.27,-60.281 -143.55,-97.578 -235.51,-97.578 -91.97,0 -175.24,37.297 -235.52,97.578 -60.28,60.278 -97.58,143.555 -97.58,235.52 0,91.965 37.3,175.242 97.58,235.52 60.28,60.281 143.55,97.578 235.52,97.578 z M 2417,693.047 c -57.59,57.605 -137.17,93.238 -225.04,93.238 -87.88,0 -167.46,-35.633 -225.05,-93.238 -57.6,-57.594 -93.23,-137.172 -93.23,-225.047 0,-87.875 35.63,-167.453 93.23,-225.047 57.59,-57.605 137.17,-93.234 225.05,-93.234 87.87,0 167.45,35.629 225.04,93.234 57.61,57.594 93.24,137.172 93.24,225.047 0,87.875 -35.63,167.453 -93.24,225.047" /><path
         id="path24"
         style="fill:#a7a5a6;fill-opacity:1;fill-rule:nonzero;stroke:none"
         d="m 2191.96,634.727 c 46.02,0 87.71,-18.672 117.88,-48.844 30.18,-30.168 48.84,-71.856 48.84,-117.883 0,-46.027 -18.66,-87.711 -48.84,-117.883 -30.17,-30.172 -71.86,-48.844 -117.88,-48.844 -46.03,0 -87.72,18.672 -117.89,48.844 -30.17,30.172 -48.84,71.856 -48.84,117.883 0,46.027 18.67,87.715 48.84,117.883 30.17,30.172 71.86,48.844 117.89,48.844 z m 107.41,-59.313 c -27.49,27.488 -65.48,44.496 -107.41,44.496 -41.95,0 -79.93,-17.008 -107.42,-44.496 -27.49,-27.492 -44.49,-65.473 -44.49,-107.414 0,-41.941 17,-79.922 44.49,-107.414 27.49,-27.488 65.47,-44.496 107.42,-44.496 41.93,0 79.92,17.008 107.41,44.496 27.49,27.488 44.5,65.473 44.5,107.414 0,41.941 -17.01,79.926 -44.5,107.414" /><path
         id="path26"
         style="fill:#e8f2e8;fill-opacity:1;fill-rule:evenodd;stroke:none"
         d="M 0.0664063,1872 H 876.82 V 936 H 0.0664063 v 936" /><path
         id="path28"
         style="fill:#a45430;fill-opacity:1;fill-rule:evenodd;stroke:none"
         d="m 442.75,1470.95 -73.602,-107 22.731,-15.63 76.254,110.03 c -8.508,4 -18.801,6.28 -25.383,12.6 z m 97.504,-49.84 19.5,-19.51 -91.824,-91.83 c -5.41,7.51 -12.004,14.11 -19.516,19.51 z m -48.629,30.99 21.879,-16.8 -79.082,-103.01 c -6.238,6.66 -15.301,9.92 -23.578,14.35 z m -48.043,-264.71 49.703,-119.98 -25.484,-10.55 -49.696,119.97 c 9.145,2.14 17.727,5.75 25.477,10.56 z m 24.34,22.75 91.84,-91.84 -19.508,-19.51 -91.828,91.84 c 7.5,5.41 14.094,12.01 19.496,19.51 z m 13.808,30.32 119.973,-49.7 -10.558,-25.49 -119.989,49.7 c 4.821,7.75 8.434,16.33 10.574,25.49 z m 1.125,33.29 h 129.864 v -27.59 H 482.855 c 0.731,4.49 1.11,9.1 1.106,13.79 0.008,4.71 -0.375,9.31 -1.106,13.8 z m 108.29,80.88 10.558,-25.48 -119.976,-49.7 c -2.141,9.16 -5.75,17.74 -10.559,25.49 z m -254.512,354.57 -19.508,-19.5 91.832,-91.84 c 5.41,7.51 12.004,14.1 19.504,19.51 z m 72.453,41.94 -25.488,-10.55 49.699,-119.99 c 7.754,4.82 16.34,8.43 25.484,10.57 z m -0.125,-252.91 -91.836,-91.84 19.508,-19.5 91.828,91.83 c -7.5,5.41 -14.094,12 -19.5,19.51 z m -13.805,30.31 -119.972,-49.7 10.558,-25.47 119.981,49.69 c -4.817,7.75 -8.434,16.33 -10.567,25.48 z m -1.129,33.3 H 264.168 v -27.59 l 129.863,-0.01 c -0.734,4.5 -1.109,9.11 -1.109,13.8 0,4.7 0.375,9.31 1.105,13.8 z m -108.285,80.89 -10.562,-25.5 119.976,-49.68 c 2.141,9.15 5.75,17.73 10.567,25.48 l -119.981,49.7" /><path
         id="path30"
         style="fill:#a7a5a6;fill-opacity:1;fill-rule:evenodd;stroke:none"
         d="m 543.875,1405.23 c 37.172,-37.19 60.18,-88.55 60.18,-145.27 -0.004,-56.73 -23.008,-108.09 -60.184,-145.28 -23.105,-23.1 -51.691,-40.73 -83.633,-50.77 -6.711,-2.1 -10.863,6.16 -2.472,8.8 30.418,9.6 57.636,26.43 79.644,48.43 35.528,35.53 57.504,84.61 57.504,138.82 0.004,54.2 -21.976,103.28 -57.504,138.81 -22.183,22.19 -49.668,39.1 -80.371,48.65 -0.156,0.03 -0.309,0.05 -0.465,0.09 -19.676,4.23 -37.277,14.1 -51.004,27.82 -18.609,18.62 -30.129,44.32 -30.121,72.71 -0.004,28.4 11.512,54.1 30.117,72.71 13.852,13.85 31.637,23.78 51.524,27.95 5.461,1.13 10.687,-5.64 2.668,-8.79 -18.442,-3.7 -34.93,-12.82 -47.735,-25.62 -16.953,-16.95 -27.441,-40.38 -27.445,-66.25 0.004,-25.87 10.496,-49.29 27.453,-66.25 12.504,-12.51 28.539,-21.5 46.477,-25.36 0.32,-0.04 0.652,-0.1 0.98,-0.2 32.242,-10 61.098,-27.72 84.387,-51 z m -72.562,-72.56 c 18.617,-18.62 30.128,-44.33 30.128,-72.71 0,-28.39 -11.519,-54.1 -30.121,-72.72 -13.734,-13.72 -31.328,-23.6 -51.007,-27.83 -5.946,-1.27 -11.235,5.58 -2.915,8.73 18.325,3.74 34.723,12.82 47.457,25.56 16.961,16.95 27.446,40.38 27.45,66.26 0,25.87 -10.496,49.29 -27.45,66.24 -12.804,12.8 -29.289,21.93 -47.73,25.62 -0.102,0.04 -0.195,0.08 -0.297,0.12 -0.062,0.02 -0.125,0.04 -0.187,0.06 -31.934,10.03 -60.524,27.67 -83.625,50.77 -37.184,37.18 -60.188,88.55 -60.188,145.27 0.004,56.73 23.008,108.09 60.184,145.28 23.285,23.28 52.144,41 84.383,51 5.597,1.73 9.75,-6.57 3.125,-8.6 -30.973,-9.52 -58.696,-26.52 -81.051,-48.87 -35.524,-35.52 -57.5,-84.61 -57.5,-138.81 0,-54.2 21.976,-103.28 57.5,-138.81 22.015,-22.01 49.234,-38.83 79.644,-48.43 0.164,-0.05 0.317,-0.1 0.469,-0.16 0.07,-0.01 0.145,-0.02 0.211,-0.04 19.883,-4.17 37.672,-14.09 51.52,-27.93" /><path
         id="path32"
         style="fill:#a45430;fill-opacity:1;fill-rule:evenodd;stroke:none"
         d="m 1212.62,1696.4 h 205.16 l -0.01,-43.58 h -205.15 z m 0,-90.2 h 205.16 l -0.01,-43.58 h -205.15 z m 0,-90.21 h 205.16 l -0.01,-43.58 h -205.15 z m 0,-90.2 h 205.16 l -0.01,-43.58 h -205.15 z m 0,-90.2 h 205.16 l -0.01,-43.58 h -205.15 z m 0,-90.21 h 205.16 l -0.01,-43.58 h -205.15 z m 0,-90.2 h 205.16 l -0.01,-43.58 h -205.15 v 43.58" /><path
         id="path34"
         style="fill:#a7a5a6;fill-opacity:1;fill-rule:nonzero;stroke:none"
         d="m 1224.12,1742.26 c 0,4.9 3.98,8.88 8.88,8.88 4.9,0 8.88,-3.98 8.88,-8.88 v -676.52 c 0,-4.9 -3.98,-8.88 -8.88,-8.88 -4.9,0 -8.88,3.98 -8.88,8.88 v 676.52" /><path
         id="path36"
         style="fill:#a7a5a6;fill-opacity:1;fill-rule:nonzero;stroke:none"
         d="m 1388.52,1742.26 c 0,4.9 3.98,8.88 8.87,8.88 4.9,0 8.88,-3.98 8.88,-8.88 v -676.52 c 0,-4.9 -3.98,-8.88 -8.88,-8.88 -4.89,0 -8.87,3.98 -8.87,8.88 v 676.52" /><path
         id="path38"
         style="fill:#e8f2e8;fill-opacity:1;fill-rule:evenodd;stroke:none"
         d="m 1753.58,1872 h 876.75 V 936 h -876.75 v 936" /><path
         id="path40"
         style="fill:#a45430;fill-opacity:1;fill-rule:evenodd;stroke:none"
         d="m 2325.75,1565.84 18.04,-43.57 -205.06,-84.94 c -3.66,15.63 -9.82,30.31 -18.05,43.56 z m -185.09,-138.27 h 221.97 v -47.14 h -221.97 c 1.25,7.66 1.9,15.55 1.9,23.57 0,8.03 -0.65,15.9 -1.9,23.57 z m -1.93,-56.9 205.06,-84.94 -18.04,-43.56 -205.08,84.95 c 8.24,13.24 14.41,27.91 18.06,43.55 z m -23.59,-51.81 156.97,-156.97 -33.35,-33.34 -156.96,156.96 c 12.83,9.24 24.11,20.51 33.34,33.35 z m -41.6,-38.88 84.95,-205.07 -43.56,-18.05 -84.95,205.07 c 15.64,3.65 30.31,9.83 43.56,18.05 z m 41.39,471.16 43.56,-18.05 -84.95,-205.07 c -13.25,8.23 -27.92,14.4 -43.56,18.06 z m 123.83,-71.69 33.35,-33.34 -156.97,-156.96 c -9.23,12.83 -20.51,24.1 -33.34,33.34 l 156.96,156.96" /><path
         id="path42"
         style="fill:#a7a5a6;fill-opacity:1;fill-rule:evenodd;stroke:none"
         d="m 2244.95,1652.3 c 63.55,-63.55 102.87,-151.35 102.87,-248.3 0,-96.95 -39.32,-184.75 -102.87,-248.3 -39.49,-39.49 -88.35,-69.63 -142.94,-86.78 -11.47,-3.6 -18.56,10.51 -4.23,15.04 51.99,16.41 98.51,45.16 136.13,82.78 60.73,60.72 98.29,144.62 98.29,237.26 0,92.64 -37.56,176.54 -98.29,237.26 -38.2,38.2 -85.58,67.24 -138.52,83.52 -11.33,3.46 -4.23,17.65 5.34,14.69 55.1,-17.08 104.42,-47.38 144.22,-87.17 z m -124.01,-124.02 c 31.81,-31.82 51.49,-75.75 51.49,-124.28 0,-48.52 -19.68,-92.47 -51.49,-124.28 -23.46,-23.46 -53.55,-40.33 -87.18,-47.56 -10.16,-2.17 -19.2,9.54 -4.98,14.91 31.33,6.38 59.35,21.92 81.12,43.69 28.98,28.98 46.91,69.02 46.91,113.24 0,44.22 -17.93,84.26 -46.91,113.24 -21.88,21.88 -50.07,37.46 -81.59,43.78 -13.7,5.38 -4.76,16.96 4.56,15.01 33.99,-7.12 64.4,-24.08 88.07,-47.75" /><path
         id="path44"
         style="fill:#a45430;fill-opacity:1;fill-rule:evenodd;stroke:none"
         d="M 710.211,635.648 542.148,753.324 517.16,717.629 685.215,599.949 Z M 658.473,561.758 490.41,679.434 465.422,643.738 633.477,526.059 Z M 606.734,487.867 438.672,605.547 413.684,569.848 581.734,452.172 Z M 554.996,413.977 386.934,531.656 361.949,495.957 529.996,378.281 Z M 503.258,340.09 335.195,457.766 310.207,422.066 478.258,304.391 Z M 451.52,266.199 283.457,383.875 258.469,348.176 426.52,230.5 l 25,35.699" /><path
         id="path46"
         style="fill:#a45430;fill-opacity:1;fill-rule:evenodd;stroke:none"
         d="M 148.191,760.398 H 353.352 L 353.344,716.82 H 148.191 Z m 0,-90.203 h 205.161 l -0.008,-43.578 H 148.191 Z m 0,-90.203 h 205.161 l -0.008,-43.578 H 148.191 Z m 0,-90.203 h 205.161 l -0.008,-43.578 H 148.191 Z m 0,-90.203 h 205.161 l -0.008,-43.578 H 148.191 Z m 0,-90.203 h 205.161 l -0.008,-43.578 H 148.191 Z m 0,-90.203 h 205.161 l -0.008,-43.578 H 148.191 v 43.578" /><path
         id="path48"
         style="fill:#a7a5a6;fill-opacity:1;fill-rule:nonzero;stroke:none"
         d="m 159.695,806.262 c 0,4.902 3.973,8.879 8.879,8.879 4.899,0 8.879,-3.977 8.879,-8.879 V 129.738 c 0,-4.902 -3.98,-8.879 -8.879,-8.879 -4.906,0 -8.879,3.977 -8.879,8.879 v 676.524" /><path
         id="path50"
         style="fill:#a7a5a6;fill-opacity:1;fill-rule:nonzero;stroke:none"
         d="m 324.086,806.262 c 0,4.902 3.98,8.879 8.879,8.879 4.902,0 8.883,-3.977 8.883,-8.879 V 129.738 c 0,-4.902 -3.981,-8.879 -8.883,-8.879 -4.899,0 -8.879,3.977 -8.879,8.879 v 676.524" /><path
         id="path52"
         style="fill:#a7a5a6;fill-opacity:1;fill-rule:nonzero;stroke:none"
         d="m 727.09,679.816 c 2.812,4.016 1.836,9.559 -2.18,12.368 -4.015,2.808 -9.555,1.836 -12.363,-2.18 L 324.504,135.824 c -2.809,-4.011 -1.832,-9.551 2.184,-12.359 4.011,-2.817 9.55,-1.836 12.363,2.18 L 727.09,679.816" /><path
         id="path54"
         style="fill:#a7a5a6;fill-opacity:1;fill-rule:nonzero;stroke:none"
         d="m 592.43,774.109 c 2.808,4.02 1.832,9.555 -2.184,12.368 -4.012,2.808 -9.551,1.832 -12.363,-2.18 L 162.113,190.535 c -2.808,-4.015 -1.832,-9.555 2.18,-12.363 4.016,-2.809 9.555,-1.836 12.367,2.18 l 415.77,593.757" /><path
         id="path56"
         style="fill:#e8f2e8;fill-opacity:1;fill-rule:evenodd;stroke:none"
         d="m 876.82,936 h 876.76 V 0 H 876.82 v 936" /><path
         id="path58"
         style="fill:#a45430;fill-opacity:1;fill-rule:evenodd;stroke:none"
         d="m 1291.15,791.633 h 72.15 v -36.957 h -24.05 V 120.855 h -48.1 v 633.821 h -24.06 v 36.957 h 24.06" /><path
         id="path60"
         style="fill:#ffffff;fill-opacity:1;fill-rule:evenodd;stroke:none"
         d="m 1091.19,417.789 392.02,392.012 56,-55.996 -392.01,-392.012 -56.01,55.996" /><path
         id="path62"
         style="fill:#a7a5a6;fill-opacity:1;fill-rule:nonzero;stroke:none"
         d="m 1087.41,421.57 392.02,392.012 c 2.08,2.086 5.47,2.086 7.55,0 l 56.01,-55.996 c 2.08,-2.09 2.08,-5.477 0,-7.563 L 1150.97,358.012 c -2.08,-2.09 -5.47,-2.09 -7.56,0 l -56,55.996 c -2.08,2.086 -2.08,5.476 0,7.562 z m 395.8,380.676 -384.46,-384.457 48.45,-48.441 384.45,384.457 -48.44,48.441" /><path
         id="path64"
         style="fill:#ffffff;fill-opacity:1;fill-rule:evenodd;stroke:none"
         d="m 1091.19,753.805 392.01,-392.012 56,55.996 -392.01,392.012 -56,-55.996" /><path
         id="path66"
         style="fill:#a7a5a6;fill-opacity:1;fill-rule:nonzero;stroke:none"
         d="m 1098.74,753.805 384.46,-384.457 48.45,48.441 -384.46,384.457 z m 380.69,-395.793 -392.02,392.011 c -2.09,2.086 -2.09,5.473 0,7.563 l 56,55.996 c 2.09,2.086 5.48,2.086 7.56,0 L 1542.98,421.57 c 2.09,-2.086 2.09,-5.476 0,-7.562 l -56,-55.996 c -2.08,-2.09 -5.47,-2.09 -7.55,0" /><path
         id="path68"
         style="fill:#231f20;fill-opacity:1;fill-rule:nonzero;stroke:none"
         d="m 1202.82,714.281 c -0.22,2.676 -0.82,5.121 -1.82,7.352 -0.99,2.226 -2.38,4.23 -4.15,6 -3.44,3.441 -7.35,5.133 -11.7,5.082 -4.36,-0.043 -8.29,-1.828 -11.79,-5.332 -3.4,-3.399 -5.14,-7.242 -5.25,-11.543 -0.11,-4.305 1.43,-8.043 4.63,-11.238 1.87,-1.864 3.96,-3.309 6.3,-4.321 2.34,-1.027 4.94,-1.648 7.82,-1.867 l -5.77,-5.773 c -2.36,0.382 -4.6,1.14 -6.7,2.281 -2.11,1.133 -4.1,2.629 -6,4.527 -2.4,2.406 -4.23,5.02 -5.48,7.848 -1.25,2.828 -1.89,5.785 -1.91,8.863 -0.02,3.024 0.57,5.981 1.79,8.84 1.22,2.859 2.98,5.453 5.28,7.754 2.31,2.301 4.89,4.051 7.73,5.254 2.85,1.203 5.82,1.797 8.91,1.765 3.11,-0.011 6.08,-0.632 8.88,-1.859 2.82,-1.223 5.39,-3.004 7.75,-5.355 1.84,-1.848 3.33,-3.879 4.47,-6.086 1.14,-2.219 1.95,-4.653 2.44,-7.317 l -5.43,-4.875" /><path
         id="path70"
         style="fill:#231f20;fill-opacity:1;fill-rule:nonzero;stroke:none"
         d="m 1219.16,686.434 0.92,-0.918 c 2.71,-2.707 4.82,-4.188 6.34,-4.45 1.52,-0.257 3.08,0.418 4.68,2.012 1.73,1.735 2.48,3.43 2.24,5.09 -0.25,1.668 -1.66,3.785 -4.24,6.363 l -0.92,0.922 z m -4.29,-3.649 -14.07,-14.062 -4.79,4.785 31.44,31.441 7.13,-7.129 c 2.08,-2.086 3.58,-3.851 4.46,-5.269 0.88,-1.426 1.41,-2.86 1.59,-4.313 0.22,-1.73 0,-3.461 -0.68,-5.191 -0.67,-1.731 -1.73,-3.32 -3.16,-4.746 -2.52,-2.52 -5.1,-3.887 -7.74,-4.094 -2.65,-0.207 -5.29,0.734 -7.95,2.824 l -3.49,-25.121 -5.77,5.774 3.61,24.523 -0.58,0.578" /><path
         id="path72"
         style="fill:#231f20;fill-opacity:1;fill-rule:nonzero;stroke:none"
         d="m 1273.84,626.988 c 1.58,1.59 2.8,3.391 3.66,5.403 0.85,2.011 1.29,4.113 1.31,6.32 0.05,2.156 -0.33,4.23 -1.13,6.223 -0.8,1.988 -1.98,3.761 -3.52,5.304 -1.55,1.547 -3.31,2.727 -5.29,3.535 -1.99,0.809 -4.08,1.192 -6.28,1.172 -2.2,-0.019 -4.29,-0.457 -6.29,-1.316 -2,-0.859 -3.81,-2.086 -5.41,-3.691 -1.59,-1.586 -2.81,-3.379 -3.65,-5.368 -0.85,-1.988 -1.29,-4.086 -1.32,-6.293 -0.02,-2.195 0.36,-4.293 1.17,-6.261 0.8,-1.981 1.98,-3.75 3.54,-5.305 1.53,-1.535 3.28,-2.699 5.24,-3.492 1.97,-0.789 4.06,-1.184 6.29,-1.164 2.2,0.023 4.3,0.457 6.31,1.304 2,0.844 3.79,2.059 5.37,3.629 z m 5.32,-5.324 c -2.23,-2.23 -4.76,-3.934 -7.58,-5.082 -2.83,-1.152 -5.83,-1.711 -8.99,-1.656 -3.18,0.051 -6.2,0.683 -9.06,1.883 -2.87,1.203 -5.42,2.925 -7.65,5.152 -2.26,2.262 -4,4.844 -5.22,7.734 -1.21,2.895 -1.84,5.899 -1.87,9.016 -0.04,3.164 0.51,6.148 1.66,8.961 1.14,2.793 2.85,5.336 5.11,7.594 2.25,2.25 4.78,3.949 7.6,5.113 2.82,1.16 5.82,1.719 9,1.699 3.17,-0.043 6.17,-0.676 9.01,-1.898 2.85,-1.211 5.41,-2.957 7.69,-5.235 2.27,-2.257 4,-4.808 5.21,-7.66 1.21,-2.84 1.83,-5.836 1.88,-9.008 0.01,-3.191 -0.56,-6.199 -1.72,-9.035 -1.16,-2.832 -2.85,-5.363 -5.07,-7.578" /><path
         id="path74"
         style="fill:#231f20;fill-opacity:1;fill-rule:nonzero;stroke:none"
         d="m 1284.52,597.59 5.96,-2.195 c -1.01,-1.782 -1.37,-3.567 -1.08,-5.329 0.3,-1.773 1.25,-3.453 2.85,-5.058 1.52,-1.524 3.15,-2.301 4.89,-2.352 1.73,-0.054 3.32,0.633 4.72,2.039 1.86,1.856 1.96,5.032 0.35,9.539 -0.22,0.641 -0.39,1.129 -0.52,1.461 -1.78,5.153 -2.55,8.996 -2.34,11.516 0.21,2.519 1.31,4.769 3.28,6.738 2.57,2.571 5.52,3.774 8.84,3.617 3.33,-0.144 6.4,-1.628 9.23,-4.457 2.31,-2.312 3.8,-4.707 4.48,-7.16 0.66,-2.449 0.45,-4.82 -0.63,-7.094 l -6.04,1.93 c 0.35,1.617 0.38,3.028 0.1,4.238 -0.31,1.215 -0.94,2.301 -1.91,3.278 -1.37,1.367 -2.82,2.101 -4.34,2.195 -1.54,0.094 -2.9,-0.453 -4.1,-1.656 -1.88,-1.887 -1.88,-5.422 0.05,-10.606 0.14,-0.406 0.26,-0.714 0.34,-0.953 1.67,-4.527 2.41,-8.062 2.2,-10.593 -0.2,-2.52 -1.33,-4.809 -3.39,-6.86 -2.97,-2.976 -6.27,-4.406 -9.91,-4.281 -3.62,0.125 -7.03,1.781 -10.23,4.973 -2.67,2.675 -4.25,5.484 -4.73,8.425 -0.48,2.946 0.16,5.825 1.93,8.645" /><path
         id="path76"
         style="fill:#231f20;fill-opacity:1;fill-rule:nonzero;stroke:none"
         d="m 1319.3,562.809 5.97,-2.196 c -1.02,-1.781 -1.38,-3.566 -1.09,-5.324 0.3,-1.777 1.25,-3.457 2.85,-5.062 1.52,-1.52 3.15,-2.301 4.89,-2.352 1.73,-0.055 3.32,0.633 4.72,2.039 1.86,1.856 1.97,5.031 0.35,9.539 -0.22,0.641 -0.38,1.129 -0.52,1.461 -1.77,5.152 -2.55,8.996 -2.34,11.516 0.21,2.519 1.31,4.769 3.28,6.738 2.57,2.57 5.52,3.773 8.84,3.617 3.33,-0.144 6.4,-1.629 9.23,-4.457 2.31,-2.312 3.81,-4.707 4.48,-7.16 0.66,-2.449 0.45,-4.82 -0.62,-7.094 l -6.05,1.93 c 0.35,1.617 0.39,3.027 0.09,4.238 -0.29,1.215 -0.93,2.301 -1.9,3.278 -1.37,1.367 -2.82,2.105 -4.34,2.195 -1.53,0.094 -2.9,-0.453 -4.1,-1.656 -1.88,-1.887 -1.88,-5.422 0.05,-10.606 0.14,-0.406 0.26,-0.715 0.34,-0.953 1.68,-4.527 2.41,-8.062 2.2,-10.59 -0.2,-2.523 -1.33,-4.812 -3.38,-6.863 -2.98,-2.977 -6.28,-4.406 -9.91,-4.281 -3.63,0.125 -7.04,1.781 -10.23,4.976 -2.68,2.672 -4.25,5.481 -4.73,8.422 -0.49,2.945 0.15,5.824 1.92,8.645" /><path
         id="path78"
         style="fill:#231f20;fill-opacity:1;fill-rule:nonzero;stroke:none"
         d="m 1349.68,519.848 31.43,31.441 5.11,-5.109 -31.44,-31.438 -5.1,5.106" /><path
         id="path80"
         style="fill:#231f20;fill-opacity:1;fill-rule:nonzero;stroke:none"
         d="m 1372.78,496.742 32.68,32.684 0.76,-39.192 c 0,-1.086 -0.04,-2.218 -0.09,-3.386 -0.06,-1.172 -0.17,-2.457 -0.33,-3.848 l 21.8,21.801 4.73,-4.727 -32.67,-32.664 -0.81,39.942 c -0.01,1.074 0.02,2.152 0.1,3.253 0.07,1.098 0.21,2.196 0.39,3.293 l -21.86,-21.859 -4.7,4.703" /><path
         id="path82"
         style="fill:#231f20;fill-opacity:1;fill-rule:nonzero;stroke:none"
         d="m 1452.25,449.48 12.46,-12.457 c -0.21,-0.207 -0.5,-0.519 -0.88,-0.921 -0.97,-1.059 -1.63,-1.762 -2,-2.125 -4.42,-4.43 -9.13,-6.59 -14.11,-6.508 -4.98,0.082 -9.78,2.433 -14.38,7.035 -2.58,2.582 -4.5,5.254 -5.75,8.031 -1.27,2.778 -1.89,5.692 -1.87,8.742 0.02,3.004 0.67,5.93 1.92,8.766 1.25,2.84 3.04,5.43 5.38,7.766 2.37,2.375 4.97,4.164 7.78,5.359 2.81,1.191 5.78,1.762 8.91,1.707 3.02,-0.027 5.97,-0.68 8.82,-1.953 2.85,-1.277 5.44,-3.082 7.79,-5.434 2.48,-2.48 4.24,-5.144 5.29,-7.996 1.05,-2.859 1.42,-5.976 1.09,-9.367 l -6.56,0.934 c 0.18,2.281 -0.11,4.382 -0.84,6.324 -0.73,1.926 -1.91,3.711 -3.56,5.355 -3.41,3.41 -7.28,5.09 -11.61,5.071 -4.34,-0.032 -8.25,-1.793 -11.74,-5.289 -3.56,-3.555 -5.36,-7.504 -5.41,-11.875 -0.07,-4.368 1.62,-8.262 5.06,-11.696 2.92,-2.922 5.89,-4.539 8.93,-4.851 3.04,-0.309 5.73,0.718 8.07,3.058 l 0.46,0.461 -7.56,7.551 4.31,4.312" /><path
         id="path84"
         style="fill:#231f20;fill-opacity:1;fill-rule:nonzero;stroke:none"
         d="m 1148.4,422.387 0.92,0.922 c 2.71,2.707 4.19,4.82 4.45,6.343 0.26,1.516 -0.41,3.078 -2.01,4.676 -1.73,1.731 -3.43,2.481 -5.09,2.238 -1.67,-0.25 -3.78,-1.656 -6.36,-4.242 l -0.93,-0.918 z m 3.65,-4.289 14.07,-14.067 -4.79,-4.789 -31.44,31.442 7.13,7.129 c 2.08,2.082 3.85,3.574 5.27,4.457 1.42,0.878 2.85,1.41 4.31,1.593 1.73,0.219 3.46,-0.008 5.19,-0.683 1.73,-0.672 3.32,-1.731 4.75,-3.16 2.52,-2.52 3.89,-5.102 4.09,-7.743 0.21,-2.644 -0.73,-5.285 -2.83,-7.949 l 25.13,-3.484 -5.77,-5.774 -24.53,3.606 -0.58,-0.578" /><path
         id="path86"
         style="fill:#231f20;fill-opacity:1;fill-rule:nonzero;stroke:none"
         d="m 1192.64,455.25 8.77,8.758 -10.39,3.949 c -0.66,0.281 -1.37,0.613 -2.17,1.008 -0.79,0.39 -1.66,0.848 -2.58,1.375 0.51,-0.848 0.98,-1.676 1.37,-2.465 0.4,-0.789 0.75,-1.535 1.06,-2.227 z m 26.48,1.781 -11.66,4.532 -12.45,-12.45 4.44,-11.746 -5.36,-5.367 -17.47,47.898 47.89,-17.476 -5.39,-5.391" /><path
         id="path88"
         style="fill:#231f20;fill-opacity:1;fill-rule:nonzero;stroke:none"
         d="m 1239.96,477.879 -31.43,31.437 5.1,5.11 31.44,-31.438 -5.11,-5.109" /><path
         id="path90"
         style="fill:#231f20;fill-opacity:1;fill-rule:nonzero;stroke:none"
         d="m 1264.83,502.742 -31.44,31.438 5.11,5.109 26.86,-26.867 11.43,11.422 4.57,-4.571 -16.53,-16.531" /><path
         id="path92"
         style="fill:#231f20;fill-opacity:1;fill-rule:nonzero;stroke:none"
         d="m 1369.26,643.242 0.92,0.922 c 2.71,2.707 4.19,4.824 4.45,6.344 0.26,1.515 -0.42,3.078 -2.02,4.676 -1.73,1.73 -3.43,2.48 -5.08,2.238 -1.67,-0.25 -3.79,-1.656 -6.37,-4.238 l -0.92,-0.922 z m 3.65,-4.289 14.06,-14.066 -4.79,-4.789 -31.43,31.441 7.13,7.129 c 2.08,2.082 3.84,3.574 5.26,4.457 1.43,0.879 2.86,1.41 4.32,1.594 1.72,0.219 3.46,-0.008 5.18,-0.684 1.74,-0.672 3.32,-1.73 4.75,-3.16 2.52,-2.52 3.89,-5.098 4.1,-7.742 0.21,-2.645 -0.74,-5.285 -2.83,-7.949 l 25.13,-3.485 -5.78,-5.773 -24.52,3.605 -0.58,-0.578" /><path
         id="path94"
         style="fill:#231f20;fill-opacity:1;fill-rule:nonzero;stroke:none"
         d="m 1420.34,689.555 c -1.59,1.59 -3.39,2.808 -5.4,3.66 -2.01,0.851 -4.12,1.297 -6.32,1.316 -2.16,0.055 -4.23,-0.332 -6.23,-1.129 -1.98,-0.808 -3.76,-1.98 -5.3,-3.527 -1.55,-1.543 -2.73,-3.305 -3.54,-5.285 -0.8,-1.988 -1.19,-4.082 -1.17,-6.277 0.02,-2.204 0.46,-4.293 1.32,-6.293 0.86,-2.004 2.09,-3.805 3.69,-5.411 1.59,-1.586 3.38,-2.812 5.37,-3.652 1.99,-0.848 4.08,-1.281 6.29,-1.316 2.2,-0.02 4.29,0.363 6.26,1.164 1.98,0.804 3.75,1.992 5.31,3.543 1.53,1.535 2.7,3.285 3.49,5.246 0.79,1.969 1.18,4.062 1.16,6.281 -0.02,2.207 -0.45,4.313 -1.3,6.313 -0.84,2 -2.06,3.792 -3.63,5.367 z m 5.32,5.332 c 2.23,-2.235 3.94,-4.77 5.09,-7.59 1.15,-2.828 1.71,-5.824 1.66,-8.984 -0.06,-3.184 -0.69,-6.2 -1.89,-9.063 -1.2,-2.871 -2.92,-5.418 -5.15,-7.648 -2.26,-2.262 -4.85,-4 -7.74,-5.215 -2.89,-1.219 -5.9,-1.844 -9.01,-1.875 -3.17,-0.043 -6.15,0.508 -8.96,1.656 -2.8,1.141 -5.34,2.852 -7.6,5.113 -2.25,2.246 -3.95,4.778 -5.11,7.598 -1.16,2.82 -1.72,5.824 -1.7,8.996 0.04,3.172 0.68,6.18 1.9,9.016 1.21,2.851 2.96,5.414 5.23,7.695 2.26,2.258 4.81,4 7.66,5.199 2.84,1.211 5.84,1.836 9.01,1.891 3.19,0.008 6.2,-0.563 9.04,-1.727 2.83,-1.156 5.36,-2.847 7.57,-5.062" /><path
         id="path96"
         style="fill:#231f20;fill-opacity:1;fill-rule:nonzero;stroke:none"
         d="m 1442.99,705.59 8.76,8.762 -10.39,3.949 c -0.65,0.277 -1.37,0.609 -2.16,1.004 -0.8,0.39 -1.66,0.851 -2.59,1.379 0.51,-0.852 0.98,-1.68 1.37,-2.465 0.4,-0.789 0.75,-1.535 1.06,-2.231 z m 26.47,1.785 -11.66,4.531 -12.45,-12.453 4.45,-11.742 -5.37,-5.371 -17.47,47.902 47.89,-17.48 -5.39,-5.387" /><path
         id="path98"
         style="fill:#231f20;fill-opacity:1;fill-rule:nonzero;stroke:none"
         d="m 1480.6,727.734 4.29,4.293 c 2.36,2.364 3.98,4.293 4.84,5.793 0.87,1.496 1.37,3.047 1.5,4.668 0.17,2.203 -0.2,4.364 -1.13,6.469 -0.91,2.098 -2.37,4.156 -4.37,6.164 -2.01,2 -4.07,3.465 -6.17,4.375 -2.1,0.922 -4.26,1.293 -6.47,1.121 -1.62,-0.144 -3.22,-0.676 -4.77,-1.594 -1.56,-0.925 -3.65,-2.707 -6.28,-5.343 l -1.85,-1.84 -1.85,-1.848 z m -0.5,-9.718 -31.44,31.437 6.89,6.895 c 4.48,4.476 7.86,7.406 10.14,8.777 2.27,1.379 4.63,2.215 7.06,2.543 3.21,0.422 6.38,0.02 9.48,-1.215 3.12,-1.246 6.07,-3.258 8.87,-6.055 2.79,-2.789 4.79,-5.734 6.01,-8.82 1.21,-3.09 1.62,-6.25 1.2,-9.473 -0.32,-2.429 -1.13,-4.75 -2.42,-6.957 -1.31,-2.207 -3.82,-5.16 -7.53,-8.871 l -1.36,-1.367 -6.9,-6.894" /></g></g></svg>