<?xml version="1.0" encoding="utf-8"?>
<!-- Generator: Adobe Illustrator 19.2.1, SVG Export Plug-In . SVG Version: 6.00 Build 0)  -->
<svg version="1.1" id="Layer_1" xmlns="http://www.w3.org/2000/svg" xmlns:xlink="http://www.w3.org/1999/xlink" x="0px" y="0px"
	 width="841.9px" height="595.3px" viewBox="0 0 841.9 595.3" enable-background="new 0 0 841.9 595.3" xml:space="preserve">
<rect fill="#00A79D" stroke="#335382" stroke-miterlimit="10" width="841.5" height="595.3"/>
<g>
	<g>
		<path fill="#E6E7E8" d="M20.8,147.8c5.2,1.4,13,2.7,23.8,2.7v5.5h220V66H98.9c-26.5,0-52,10.9-69.8,30.5c-2.2,2.5-4.4,5.1-6.5,8
			c-6.7,9.4-10.3,20.7-10.3,32.3v0C12.3,141.9,15.8,146.5,20.8,147.8z"/>
		<path fill="#ED1C24" d="M124,66H98.9c-26.5,0-52,10.9-69.8,30.5c-2.2,2.5-4.4,5.1-6.5,8c-6.7,9.4-10.3,20.7-10.3,32.3v0h10.2
			C22.5,136.7,94.1,131.2,124,66z"/>
		<path fill="#FFFFFF" d="M152.1,66c0,0-36.7,5.1-60.3,19.6s-26.7,38.8-26.7,38.8s55.2-15.6,106.5-15.6s93,0,93,0V66L152.1,66z"/>
		<path fill="#414042" d="M120.3,73.3c-9.6,3-20,7-28.5,12.3c-23.6,14.5-26.7,38.8-26.7,38.8C84.4,115.3,105.9,99.8,120.3,73.3z"/>
		<path fill="#414042" d="M77.3,68.4c-18.4,4.2-35.3,13.8-48.2,28.1c-2.2,2.5-4.4,5.1-6.5,8c-2.8,3.9-5,8.1-6.7,12.5
			C36.5,107.2,59,92,77.3,68.4z"/>
		<path fill="#414042" d="M157.7,80.4V94c0,1.4,1.1,2.5,2.5,2.5h8.2c1.4,0,2.5-1.1,2.5-2.5V80.4c0-1.4-1.1-2.5-2.5-2.5h-8.2
			C158.8,77.9,157.7,79,157.7,80.4z"/>
		<path fill="#414042" d="M184.8,80.4V94c0,1.4,1.1,2.5,2.5,2.5h8.2c1.4,0,2.5-1.1,2.5-2.5V80.4c0-1.4-1.1-2.5-2.5-2.5h-8.2
			C185.9,77.9,184.8,79,184.8,80.4z"/>
		<path fill="#414042" d="M212,80.4V94c0,1.4,1.1,2.5,2.5,2.5h8.2c1.4,0,2.5-1.1,2.5-2.5V80.4c0-1.4-1.1-2.5-2.5-2.5h-8.2
			C213.1,77.9,212,79,212,80.4z"/>
		<path fill="#414042" d="M239.2,80.4V94c0,1.4,1.1,2.5,2.5,2.5h8.2c1.4,0,2.5-1.1,2.5-2.5V80.4c0-1.4-1.1-2.5-2.5-2.5h-8.2
			C240.3,77.9,239.2,79,239.2,80.4z"/>
		<rect x="44.6" y="150.4" fill="#D1D3D4" width="220" height="5.5"/>
	</g>
	<g>
		<path fill="#F1F2F2" d="M300.8,147.7c-5.4-0.5-8.2-6.8-5-11.2C311.7,114.9,355.8,66,428.9,66h117.9v90H317.7v-6.7L300.8,147.7z"/>
		<path fill="#ED1C24" d="M303.6,126.7c0,0,87-6,83.5-55.1C346.7,82.9,319,108.6,303.6,126.7z"/>
		<path fill="#414042" d="M382.7,72.9c0,0-1.3,15.1-13.5,27.4c-3.4,3.5-8.8,3.9-12.9,1.2c-3.9-2.6-9.4-5.7-16.2-8.2
			C340,93.3,360.4,71.5,382.7,72.9z"/>
		<rect x="317.7" y="149.6" fill="#D1D3D4" width="229.1" height="6.4"/>
		<g>
			<path fill="#414042" d="M422.3,119.7c6.9-1.9,13.9-3.1,21.1-3.7c1.9-0.2,3.3-1.9,3.1-3.8l-2.6-22.7c-0.2-1.9-2-3.2-3.8-3
				c-10.3,1.4-20.3,4.5-29.5,9.1c-1.7,0.8-2.4,3-1.5,4.6l9.4,17.7C419.2,119.4,420.8,120.1,422.3,119.7z"/>
			<path fill="#414042" d="M487.4,115.5H516c1.9,0,3.4-1.5,3.4-3.4V89c0-1.9-1.5-3.4-3.4-3.4h-28.6c-1.9,0-3.4,1.5-3.4,3.4v23.1
				C484,114,485.5,115.5,487.4,115.5z"/>
			<path fill="#414042" d="M520.7,89v23.1c0,1.9,1.5,3.4,3.4,3.4h22.7V85.6h-22.7C522.3,85.6,520.7,87.1,520.7,89z"/>
			<path fill="#414042" d="M482.6,89c0-1.9-1.5-3.4-3.4-3.4h-25.8c-1.7,0-3.4,0-5.1,0.1c-2,0.1-3.4,1.9-3.2,3.8l2.7,23
				c0.2,1.7,1.7,3,3.5,3c0.7,0,1.4,0,2.1,0h25.8c1.9,0,3.4-1.5,3.4-3.4V89z"/>
			<path fill="#414042" d="M403.1,99.7c-8.1,4.9-15.4,11-21.8,18.2c-1.3,1.4-1.1,3.6,0.3,4.8l9.2,8c1.1,0.9,2.6,1.1,3.9,0.4
				c6.4-3.6,13-6.6,19.9-9c2-0.7,2.9-3,1.9-4.8l-8.6-16.2C406.9,99.3,404.8,98.7,403.1,99.7z"/>
		</g>
	</g>
	<g>
		<path fill="#F1F2F2" d="M14.3,299l27-37.8c13.4-18.7,34.9-29.8,57.9-29.8h165.5v90H23v-5.5h0C14.3,315.9,9.2,306.1,14.3,299z"/>
		<path fill="#414042" d="M33.1,282.7l18.6-26.3h-7c-0.9,1.1-1.7,2.2-2.5,3.3l-16.4,22.9H33.1z"/>
		<polygon fill="#ED1C24" points="264.7,300.9 20.5,300.9 46.5,263.8 264.7,263.8 		"/>
		<path fill="#414042" d="M264.7,294.9H106c-2.8,0-4.4-3.1-2.8-5.3l12.9-18.3c0.6-0.9,1.7-1.4,2.8-1.4h145.8V294.9z"/>
		<path fill="#414042" d="M78.4,262.2v14.6c0,1.5,1.2,2.7,2.7,2.7h8.9c1.5,0,2.7-1.2,2.7-2.7v-14.6c0-1.5-1.2-2.7-2.7-2.7h-8.9
			C79.6,259.6,78.4,260.8,78.4,262.2z"/>
		<rect x="23" y="315.7" fill="#D1D3D4" width="241.6" height="5.7"/>
	</g>
	<g>
		<path fill="#F1F2F2" d="M588.4,156v-6.4H582c-3.3,0-6-2.7-6-6v-6.9c0-2,1-3.8,2.6-4.9c6.6-4.5,26.8-16.6,72.4-31.2L681.2,79
			c11.9-8.5,26.1-13,40.7-13h107.7v90H588.4z"/>
		<path fill="#414042" d="M666,100.5l25.1-17.9h-15c-0.4,0.5-25.1,17.9-25.1,17.9H666z"/>
		<path fill="#D1D3D4" d="M599.2,124.5v6.1h12.6l0,0c0-3.4-2.7-6.1-6.1-6.1H599.2z"/>
		<polygon fill="#414042" points="697.6,82.6 672.5,100.5 691,100.5 702.2,82.6 		"/>
		<polygon fill="#414042" points="696.3,100.5 705.6,85.6 713.8,85.6 713.8,100.5 		"/>
		<polygon fill="#ED1C24" points="749.4,100.5 733.1,131.7 829.6,131.7 829.6,100.5 		"/>
		<path fill="#414042" d="M751.7,71.9V81c0,0.9,0.7,1.7,1.7,1.7h5.5c0.9,0,1.7-0.7,1.7-1.7v-9.1c0-0.9-0.7-1.7-1.7-1.7h-5.5
			C752.5,70.2,751.7,71,751.7,71.9z"/>
		<path fill="#414042" d="M767.7,71.9V81c0,0.9,0.7,1.7,1.7,1.7h5.5c0.9,0,1.7-0.7,1.7-1.7v-9.1c0-0.9-0.7-1.7-1.7-1.7h-5.5
			C768.4,70.2,767.7,71,767.7,71.9z"/>
		<path fill="#414042" d="M783.6,71.9V81c0,0.9,0.7,1.7,1.7,1.7h5.5c0.9,0,1.7-0.7,1.7-1.7v-9.1c0-0.9-0.7-1.7-1.7-1.7h-5.5
			C784.4,70.2,783.6,71,783.6,71.9z"/>
		<path fill="#414042" d="M799.6,71.9V81c0,0.9,0.7,1.7,1.7,1.7h5.5c0.9,0,1.7-0.7,1.7-1.7v-9.1c0-0.9-0.7-1.7-1.7-1.7h-5.5
			C800.3,70.2,799.6,71,799.6,71.9z"/>
		<path fill="#414042" d="M815.5,71.9V81c0,0.9,0.7,1.7,1.7,1.7h5.5c0.9,0,1.7-0.7,1.7-1.7v-9.1c0-0.9-0.7-1.7-1.7-1.7h-5.5
			C816.3,70.2,815.5,71,815.5,71.9z"/>
		<rect x="588.4" y="148.6" fill="#D1D3D4" width="241.2" height="7.3"/>
	</g>
	<g>
		<path fill="#F1F2F2" d="M582.4,313.1c-5.4-0.5-8.2-6.8-5-11.2c15.9-21.6,59.9-70.5,133.1-70.5h119.1v90H599.3v-6.7L582.4,313.1z"
			/>
		<path fill="#ED1C24" d="M710.5,231.4c-61.8,0-102.8,34.9-123.6,58.8c9.1,0.1,23.9-0.6,39-5.3c24.4-7.5,55.6-28.4,85.3-28.4
			c29.7,0,118.5,0,118.5,0v-25H710.5z"/>
		<path fill="#ED1C24" d="M582.4,313.1l16.9,1.6v6.7h230.3v-45c0,0-66.3,0-106.1,0s-42.2,11.6-67.5,19s-78.7,6.6-78.7,6.6
			C574.1,306.3,576.9,312.6,582.4,313.1z"/>
		<path fill="#414042" d="M660,239.7c-26.8,9.2-47.5,24.6-62.2,38.9C615.8,276,655.9,267,660,239.7z"/>
		<rect x="599.3" y="314.9" fill="#D1D3D4" width="230.3" height="6.4"/>
		<g>
			<path fill="#414042" d="M703.8,269.4v13.9c0,1.8,1.5,3.3,3.3,3.3h8c1.8,0,3.3-1.5,3.3-3.3v-13.9c0-1.8-1.5-3.3-3.3-3.3h-8
				C705.3,266.1,703.8,267.6,703.8,269.4z"/>
			<path fill="#414042" d="M733.6,269.4v13.9c0,1.8,1.5,3.3,3.3,3.3h8c1.8,0,3.3-1.5,3.3-3.3v-13.9c0-1.8-1.5-3.3-3.3-3.3h-8
				C735.1,266.1,733.6,267.6,733.6,269.4z"/>
			<path fill="#414042" d="M763.3,269.4v13.9c0,1.8,1.5,3.3,3.3,3.3h8c1.8,0,3.3-1.5,3.3-3.3v-13.9c0-1.8-1.5-3.3-3.3-3.3h-8
				C764.8,266.1,763.3,267.6,763.3,269.4z"/>
			<path fill="#414042" d="M793,269.4v13.9c0,1.8,1.5,3.3,3.3,3.3h8c1.8,0,3.3-1.5,3.3-3.3v-13.9c0-1.8-1.5-3.3-3.3-3.3h-8
				C794.5,266.1,793,267.6,793,269.4z"/>
		</g>
		<path fill="#414042" d="M624.5,292.3c3-1,11.6-4,19.2-7.2c0.9-0.4,1.9,0.1,2.1,1.1l1,3.9c0.2,0.8-0.3,1.6-1,1.9
			c-3,1-10.8,3.2-20.7,3.4c-0.9,0-1.6-0.7-1.6-1.6l0,0C623.4,293.1,623.8,292.5,624.5,292.3z"/>
	</g>
	<g>
		<path fill="#F1F2F2" d="M306.8,321.4v-6.4h-6.4c-3.3,0-6-2.7-6-6v-6.9c0-2,1-3.8,2.6-4.9c5.6-3.9,21.1-13.2,53.6-24.8
			c13.1-4.7,25.6-11.2,37-19.3l0,0c19.7-14,43.3-21.6,67.5-21.6h91.7v90H306.8z"/>
		<path fill="#F1F2F2" d="M306.8,321.4v-6.4h-6.4c-3.3,0-6-2.7-6-6v-6.9c0-2,1-3.8,2.6-4.9c5.6-3.9,21.1-13.2,53.6-24.8
			c13.1-4.7,25.6-11.2,37-19.3l0,0c19.7-14,43.3-21.6,67.5-21.6h91.7v90H306.8z"/>
		<path fill="#414042" d="M344.4,274.6h9.4l12-5.3h-7.6c-2.5,1.1-5,2-7.6,3C348.5,273.1,346.4,273.9,344.4,274.6z"/>
		<path fill="#ED1C24" d="M467.6,297.1L467.6,297.1h79.2v-6.2h-50.7C486.3,290.9,476.5,293.1,467.6,297.1z"/>
		<g>
			<path fill="#414042" d="M484.1,251.3v9.1c0,0.9,0.7,1.7,1.7,1.7h5.5c0.9,0,1.7-0.7,1.7-1.7v-9.1c0-0.9-0.7-1.7-1.7-1.7h-5.5
				C484.8,249.6,484.1,250.4,484.1,251.3z"/>
			<path fill="#414042" d="M500,251.3v9.1c0,0.9,0.7,1.7,1.7,1.7h5.5c0.9,0,1.7-0.7,1.7-1.7v-9.1c0-0.9-0.7-1.7-1.7-1.7h-5.5
				C500.8,249.6,500,250.4,500,251.3z"/>
			<path fill="#414042" d="M516,251.3v9.1c0,0.9,0.7,1.7,1.7,1.7h5.5c0.9,0,1.7-0.7,1.7-1.7v-9.1c0-0.9-0.7-1.7-1.7-1.7h-5.5
				C516.7,249.6,516,250.4,516,251.3z"/>
			<path fill="#414042" d="M531.9,251.3v9.1c0,0.9,0.7,1.7,1.7,1.7h5.5c0.9,0,1.7-0.7,1.7-1.7v-9.1c0-0.9-0.7-1.7-1.7-1.7h-5.5
				C532.7,249.6,531.9,250.4,531.9,251.3z"/>
		</g>
		<rect x="306.8" y="314" fill="#D1D3D4" width="240" height="7.3"/>
		<path fill="#414042" d="M384.2,265.9l45.3-5.9l-16.7-14.3h-13.6c-4,2.2-7.8,4.6-11.5,7.2h0c-6.9,4.9-14.2,9.2-21.8,12.9H384.2z"/>
	</g>
	<g>
		<path fill="#F1F2F2" d="M580.9,478.2l-4.9-10.8c0,0,58.7-70.6,145.6-70.6h108v89.7H598.1v-6.6L580.9,478.2z"/>
		<g>
			<path fill="#414042" d="M759.3,429.9v10c0,1,0.8,1.8,1.8,1.8h6.1c1,0,1.8-0.8,1.8-1.8v-10c0-1-0.8-1.8-1.8-1.8h-6.1
				C760.2,428.1,759.3,428.9,759.3,429.9z"/>
			<path fill="#414042" d="M776.8,429.9v10c0,1,0.8,1.8,1.8,1.8h6.1c1,0,1.8-0.8,1.8-1.8v-10c0-1-0.8-1.8-1.8-1.8h-6.1
				C777.6,428.1,776.8,428.9,776.8,429.9z"/>
			<path fill="#414042" d="M794.3,429.9v10c0,1,0.8,1.8,1.8,1.8h6.1c1,0,1.8-0.8,1.8-1.8v-10c0-1-0.8-1.8-1.8-1.8h-6.1
				C795.1,428.1,794.3,428.9,794.3,429.9z"/>
			<g>
				<path fill="#414042" d="M811.6,429.9v10c0,1,0.8,1.8,1.8,1.8h6.1c1,0,1.8-0.8,1.8-1.8v-10c0-1-0.8-1.8-1.8-1.8h-6.1
					C812.4,428.1,811.6,428.9,811.6,429.9z"/>
			</g>
		</g>
		<path fill="#414042" d="M677,419.6L677,419.6c3-3.6,7.5-5.7,12.2-5.7h25.1l-7.2-11.4h-28.4c-15.6,4.2-29.7,10.3-42.2,17.1H677z"/>
		<path fill="#D1D3D4" d="M576,467.4h8.6c2.8,0,5,2.3,5,5l0,0c0,2.5-1.8,4.5-4.2,5l-4.6,0.8L576,467.4z"/>
		<path fill="#D1D3D4" d="M693.9,467.4c-16.1,0-31.8,4.4-45.5,12.7h-50.3v6.7h231.5v-0.3v-19.1H693.9z"/>
		<path fill="#ED1C24" d="M704.1,458.9L704.1,458.9c7-5.6,15.7-8.7,24.7-8.7h100.8v8.7H704.1z"/>
	</g>
	<g>
		<path fill="#F1F2F2" d="M264.7,486.8H53.5v-8.7c0,0-41.2-4.1-41.2-15.6c0-11.6,100.4-65.7,189.4-65.7c63,0,63,0,63,0V486.8z"/>
		<path fill="#414042" d="M86.8,420.1c0,0,54.5,1.8,65.1-18.4C151.9,401.7,124.5,399.7,86.8,420.1z"/>
		<rect x="53.5" y="478.5" fill="#D1D3D4" width="211.2" height="8.2"/>
		<path fill="#414042" d="M203.9,421.6h60.8v24.9h-117l0,0C162.1,430.7,182.5,421.6,203.9,421.6z"/>
		<path fill="#ED1C24" d="M133.6,453.6h131v-4.1H135.9c-14,0-27.5,4.8-38.2,13.5C108.5,457,120.9,453.6,133.6,453.6z"/>
	</g>
	<g>
		<path fill="#F1F2F2" d="M300.8,478.5c-5.4-0.5-8.2-6.8-5-11.2c15.9-21.6,59.9-70.5,133.1-70.5h117.9v90H317.7v-6.7L300.8,478.5z"
			/>
		<path fill="#414042" d="M453.1,448.5h61.7v-29.8h-76.3c-45,0-91.3,37.9-91.3,42.7h55.9C418.1,454.2,435.7,448.5,453.1,448.5z"/>
		<path fill="#ED1C24" d="M468,464.1c-28.4,0-57.1,10.4-80.6,22.7h159.5v-22.7H468z"/>
		<path fill="#D1D3D4" d="M546.8,486.8v-15.5h-83.7c-19.5,0-39.2,7.1-55.3,15.5H546.8z"/>
		<rect x="317.7" y="480.3" fill="#D1D3D4" width="229.1" height="6.4"/>
		<path fill="#414042" d="M525.7,426.9v10.5c0,1.1,0.9,1.9,1.9,1.9h6.4c1.1,0,1.9-0.9,1.9-1.9v-10.5c0-1.1-0.9-1.9-1.9-1.9h-6.4
			C526.6,425,525.7,425.9,525.7,426.9z"/>
		<path fill="#414042" d="M319,441.4l3.6,1.3c14.5-13.2,34.1-26.9,59-35l-1-3.3C354.4,413,333.9,427.5,319,441.4z"/>
	</g>
</g>
</svg>
